<?xml version="1.0" encoding="UTF-8"?>
<svg width="265px" height="265px" viewBox="0 0 265 265" version="1.1" xmlns="http://www.w3.org/2000/svg" xmlns:xlink="http://www.w3.org/1999/xlink">
    <!-- Generator: Sketch 63.1 (92452) - https://sketch.com -->
    <title>Group 2</title>
    <desc>Created with Sketch.</desc>
    <g id="Page-1" stroke="none" stroke-width="1" fill="none" fill-rule="evenodd">
        <g id="Desktop" transform="translate(-58.000000, -8.000000)">
            <g id="Group-2" transform="translate(58.000000, 8.000000)">
                <circle id="Oval" fill="#008F90" cx="132.5" cy="132.5" r="132.5"></circle>
                <g id="Group" transform="translate(41.000000, 82.000000)">
                    <path d="M9.90534519,0 L9.90534519,21.3196907 L43.075079,21.3196907 L43.075079,61.9922932 C42.8135954,65.9427858 42.6828537,67.918032 42.6828537,67.918032 C42.6828537,67.918032 42.5404286,70.5773667 41.097423,72.653416 C39.6544174,74.7294652 37.5757762,75.9675314 37.5757762,75.9675314 C37.5757762,75.9675314 33.6953961,78.2394111 30.7659483,78.2394111 C27.8365005,78.2394111 25.4125129,77.1777664 23.0856356,75.9675314 C21.5083999,75.0786826 20.0140136,73.9739775 18.6024766,72.653416 L14.376625,67.918032 L0,85.5873272 C4.28923756,90.0196915 7.59101929,93.0333705 9.90534519,94.6283644 C13.376834,97.0208551 23.0856356,101 30.7659483,101 C38.446261,101 50.6979146,99.0616421 56.5979434,94.6283644 C62.4979722,90.1950867 67.2862228,82.2019759 68.6500236,75.3846192 C69.0330011,73.563817 69.2244898,71.0749547 69.2244898,67.918032 L69.2244898,61.9922932 L69.2244898,0 L9.90534519,0 Z" id="J" fill="#E9EDF7"></path>
                    <polygon id="W" fill="#4A1942" points="106.398706 101 80.8702288 101 53.5510204 0 78.0801978 0 95.0643362 64.7137783 113.017084 0 134.735125 0 151.588227 64.7137783 169.466181 0 192 0 164.731817 101 139.264572 101 123.221406 39.5947095"></polygon>
                </g>
            </g>
        </g>
    </g>
</svg>